<svg version="1.1" viewBox="0.0 0.0 102.33858267716535 130.8451443569554" fill="none" stroke="none" stroke-linecap="square" stroke-miterlimit="10" xmlns:xlink="http://www.w3.org/1999/xlink" xmlns="http://www.w3.org/2000/svg"><clipPath id="p.0"><path d="m0 0l102.338585 0l0 130.84514l-102.338585 0l0 -130.84514z" clip-rule="nonzero"/></clipPath><g clip-path="url(#p.0)"><path fill="#000000" fill-opacity="0.0" d="m0 0l102.338585 0l0 130.84514l-102.338585 0z" fill-rule="evenodd"/><path fill="#ffff00" d="m31.728346 1.3963255l36.543304 0l-18.271652 90.20735z" fill-rule="evenodd"/><path stroke="#000000" stroke-width="1.0" stroke-linejoin="round" stroke-linecap="butt" d="m31.728346 1.3963255l36.543304 0l-18.271652 90.20735z" fill-rule="evenodd"/><path fill="#ffff00" d="m34.2021 113.65354l0 0c0 -8.723488 7.071785 -15.795273 15.795277 -15.795273l0 0c4.189167 0 8.206757 1.6641388 11.168945 4.6263275c2.9621887 2.9621887 4.6263275 6.979782 4.6263275 11.168945l0 0c0 8.723488 -7.071785 15.79528 -15.795273 15.79528l0 0c-8.723492 0 -15.795277 -7.0717926 -15.795277 -15.79528z" fill-rule="evenodd"/><path stroke="#000000" stroke-width="1.0" stroke-linejoin="round" stroke-linecap="butt" d="m34.2021 113.65354l0 0c0 -8.723488 7.071785 -15.795273 15.795277 -15.795273l0 0c4.189167 0 8.206757 1.6641388 11.168945 4.6263275c2.9621887 2.9621887 4.6263275 6.979782 4.6263275 11.168945l0 0c0 8.723488 -7.071785 15.79528 -15.795273 15.79528l0 0c-8.723492 0 -15.795277 -7.0717926 -15.795277 -15.79528z" fill-rule="evenodd"/></g></svg>