<svg version="1.1" viewBox="0.0 0.0 1440.0 1440.0" fill="none" stroke="none" stroke-linecap="square" stroke-miterlimit="10" xmlns:xlink="http://www.w3.org/1999/xlink" xmlns="http://www.w3.org/2000/svg"><clipPath id="p.0"><path d="m0 0l1440.0 0l0 1440.0l-1440.0 0l0 -1440.0z" clip-rule="nonzero"/></clipPath><g clip-path="url(#p.0)"><path fill="#000000" fill-opacity="0.0" d="m0 0l1440.0 0l0 1440.0l-1440.0 0z" fill-rule="evenodd"/><path fill="#4a86e8" d="m5.03937 720.0l0 0c0 -394.86185 320.0988 -714.96063 714.96063 -714.96063l0 0c189.61932 0 371.4724 75.326 505.55347 209.40712c134.08118 134.08113 209.4071 315.9342 209.4071 505.55353l0 0c0 394.86182 -320.09875 714.9606 -714.9606 714.9606l0 0c-394.86185 0 -714.96063 -320.09875 -714.96063 -714.9606z" fill-rule="evenodd"/><path stroke="#000000" stroke-width="8.0" stroke-linejoin="round" stroke-linecap="butt" d="m5.03937 720.0l0 0c0 -394.86185 320.0988 -714.96063 714.96063 -714.96063l0 0c189.61932 0 371.4724 75.326 505.55347 209.40712c134.08118 134.08113 209.4071 315.9342 209.4071 505.55353l0 0c0 394.86182 -320.09875 714.9606 -714.9606 714.9606l0 0c-394.86185 0 -714.96063 -320.09875 -714.96063 -714.9606z" fill-rule="evenodd"/></g></svg>